<?xml version="1.0" encoding="UTF-8" standalone="no"?>
<svg
   width="256"
   height="256"
   viewBox="0 0 67.733333 67.733332"
   version="1.1"
   id="svg8"
   inkscape:version="1.3 (0e150ed6c4, 2023-07-21)"
   sodipodi:docname="shulkerbox-template.svg"
   xml:space="preserve"
   inkscape:export-filename="enderman-folder.svg"
   inkscape:export-xdpi="96"
   inkscape:export-ydpi="96"
   xmlns:inkscape="http://www.inkscape.org/namespaces/inkscape"
   xmlns:sodipodi="http://sodipodi.sourceforge.net/DTD/sodipodi-0.dtd"
   xmlns:xlink="http://www.w3.org/1999/xlink"
   xmlns="http://www.w3.org/2000/svg"
   xmlns:svg="http://www.w3.org/2000/svg"
   xmlns:rdf="http://www.w3.org/1999/02/22-rdf-syntax-ns#"
   xmlns:cc="http://creativecommons.org/ns#"
   xmlns:dc="http://purl.org/dc/elements/1.1/"><sodipodi:namedview
     id="base"
     pagecolor="#3f3f3f"
     bordercolor="#666666"
     borderopacity="1.0"
     inkscape:pageopacity="0.0"
     inkscape:pageshadow="2"
     inkscape:zoom="5.6568542"
     inkscape:cx="123.92046"
     inkscape:cy="140.53747"
     inkscape:document-units="mm"
     inkscape:current-layer="g22"
     inkscape:document-rotation="0"
     showgrid="false"
     inkscape:window-width="2560"
     inkscape:window-height="1369"
     inkscape:window-x="-8"
     inkscape:window-y="-8"
     inkscape:window-maximized="1"
     inkscape:showpageshadow="0"
     inkscape:pagecheckerboard="true"
     inkscape:deskcolor="#3f3f3f"
     showguides="false"><sodipodi:guide
       position="4.2328765,10.722258"
       orientation="1,0"
       id="guide1"
       inkscape:locked="false" /><sodipodi:guide
       position="4.2328765,10.722258"
       orientation="0,-1"
       id="guide2"
       inkscape:locked="false" /><sodipodi:guide
       position="63.49914,10.722258"
       orientation="1,0"
       id="guide3"
       inkscape:locked="false" /><sodipodi:guide
       position="4.2333335,57.01108"
       orientation="0,-1"
       id="guide4"
       inkscape:locked="false" /><sodipodi:guide
       position="4.2328765,36.651841"
       orientation="0,-1"
       id="guide315"
       inkscape:locked="false" /><sodipodi:guide
       position="4.233759,21.834928"
       orientation="0,-1"
       id="guide316"
       inkscape:locked="false" /></sodipodi:namedview><defs
     id="defs2"><inkscape:path-effect
       effect="construct_grid"
       id="path-effect9"
       is_visible="true"
       lpeversion="1"
       nr_x="28"
       nr_y="28" /><inkscape:path-effect
       effect="construct_grid"
       id="path-effect7"
       is_visible="true"
       lpeversion="1"
       nr_x="14"
       nr_y="14" /><linearGradient
       id="linearGradient2"
       inkscape:collect="always"><stop
         style="stop-color:#808080;stop-opacity:1;"
         offset="0"
         id="stop1" /><stop
         style="stop-color:#a5a5a5;stop-opacity:1;"
         offset="1"
         id="stop2" /></linearGradient><linearGradient
       id="linearGradient4"
       inkscape:collect="always"><stop
         style="stop-color:#9a9a9a;stop-opacity:0.25180724;"
         offset="0"
         id="stop3" /><stop
         style="stop-color:#c0c0c0;stop-opacity:1;"
         offset="1"
         id="stop4" /></linearGradient><linearGradient
       id="linearGradient94"
       inkscape:collect="always"><stop
         style="stop-color:#000000;stop-opacity:0.6005435;"
         offset="0"
         id="stop94" /><stop
         style="stop-color:#000000;stop-opacity:0.09518072;"
         offset="1"
         id="stop95" /></linearGradient><inkscape:path-effect
       effect="fillet_chamfer"
       id="path-effect1331"
       is_visible="true"
       lpeversion="1"
       satellites_param="F,0,0,1,0,2.1166667,0,1 @ F,0,0,1,0,2.1166667,0,1 @ F,0,0,1,0,2.1166667,0,1 @ F,0,0,1,0,2.1166667,0,1"
       unit="px"
       method="arc"
       mode="F"
       radius="8"
       chamfer_steps="1"
       flexible="false"
       use_knot_distance="true"
       apply_no_radius="true"
       apply_with_radius="true"
       only_selected="false"
       hide_knots="false"
       nodesatellites_param="F,0,0,1,0,2.1166667,0,1 @ F,0,0,1,0,2.1166667,0,1 @ F,0,0,1,0,2.1166667,0,1 @ F,0,0,1,0,2.1166667,0,1" /><filter
       inkscape:collect="always"
       style="color-interpolation-filters:sRGB"
       id="filter1881"
       x="-0.086771888"
       width="1.1735438"
       y="-0.37883333"
       height="1.7576667"><feGaussianBlur
         inkscape:collect="always"
         stdDeviation="0.85615684"
         id="feGaussianBlur1883" /></filter><clipPath
       clipPathUnits="userSpaceOnUse"
       id="clipPath9"><g
         id="g10"
         transform="translate(16.140223,14.053346)"
         style="display:inline"
         inkscape:label="face-clip"><path
           id="path9"
           style="display:inline;fill:#ea7d4f;fill-opacity:1;stroke-width:0.264555"
           d="m 60.26178,204.25696 v 4.19548 h -9.872185 c 4.876338,-0.01 6.185724,-1.43889 9.872185,-4.19548 z m 0,0 h 39.720749 a 4.2166995,4.2121587 0 0 1 4.233331,4.19548 H 60.26178 Z m -31.102581,4.19548 h 75.056671 v 42.49587 a 4.2333333,4.2287743 0 0 1 -4.233341,4.22878 h -70.82333 a 4.2333333,4.2287743 0 0 1 -4.233334,-4.22878 v -38.2671 a 4.2333333,4.2287743 0 0 1 4.233334,-4.22877 z"
           inkscape:label="front" /><path
           id="path10"
           style="display:inline;opacity:0.5;mix-blend-mode:luminosity;fill:#141414;fill-opacity:1;stroke-width:0.264726"
           inkscape:label="rim-bottom"
           d="m 24.926121,213.80581 a 4.2333333,4.2342314 0 0 0 -10e-4,0.005 v 38.31653 a 4.2333333,4.2342314 0 0 0 4.233333,4.23437 H 99.98152 a 4.2333333,4.2342314 0 0 0 4.23333,-4.23437 v -1.16324 a 4.2333333,4.2287744 0 0 1 -4.2323,4.21266 H 29.159454 a 4.2333333,4.2287744 0 0 1 -4.233333,-4.22868 z" /></g></clipPath><filter
       style="color-interpolation-filters:sRGB"
       inkscape:label="Drop Shadow"
       id="filter88"
       x="-0.030268632"
       y="-0.055656834"
       width="1.0605373"
       height="1.1017177"><feFlood
         result="flood"
         in="SourceGraphic"
         flood-opacity="0.152941"
         flood-color="rgb(0,0,0)"
         id="feFlood87" /><feGaussianBlur
         result="blur"
         in="SourceGraphic"
         stdDeviation="1.000000"
         id="feGaussianBlur87" /><feOffset
         result="offset"
         in="blur"
         dx="0.000000"
         dy="-0.500000"
         id="feOffset87" /><feComposite
         result="comp1"
         operator="in"
         in="flood"
         in2="offset"
         id="feComposite87" /><feComposite
         result="comp2"
         operator="over"
         in="SourceGraphic"
         in2="comp1"
         id="feComposite88" /></filter><radialGradient
       inkscape:collect="always"
       xlink:href="#linearGradient94"
       id="radialGradient95"
       cx="80.709839"
       cy="238.85913"
       fx="80.709839"
       fy="238.85913"
       r="39.645134"
       gradientTransform="matrix(3.9828986,0,0,0.76601746,-240.74927,55.888859)"
       gradientUnits="userSpaceOnUse" /><filter
       style="color-interpolation-filters:sRGB"
       inkscape:label="Drop Shadow"
       id="filter88-9"
       x="-0.030268539"
       y="-0.056952213"
       width="1.0605371"
       height="1.1040851"><feFlood
         result="flood"
         in="SourceGraphic"
         flood-opacity="0.152941"
         flood-color="rgb(0,0,0)"
         id="feFlood87-2" /><feGaussianBlur
         result="blur"
         in="SourceGraphic"
         stdDeviation="1.000000"
         id="feGaussianBlur87-8" /><feOffset
         result="offset"
         in="blur"
         dx="0.000000"
         dy="-0.500000"
         id="feOffset87-1" /><feComposite
         result="comp1"
         operator="in"
         in="flood"
         in2="offset"
         id="feComposite87-3" /><feComposite
         result="comp2"
         operator="over"
         in="SourceGraphic"
         in2="comp1"
         id="feComposite88-8" /></filter><linearGradient
       inkscape:collect="always"
       xlink:href="#linearGradient4"
       id="linearGradient1"
       gradientUnits="userSpaceOnUse"
       x1="109.02695"
       y1="264.74124"
       x2="52.391197"
       y2="264.75079"
       gradientTransform="translate(1.2725e-5,-1.507e-4)" /><linearGradient
       inkscape:collect="always"
       xlink:href="#linearGradient2"
       id="linearGradient11"
       x1="109.02695"
       y1="264.74124"
       x2="52.391209"
       y2="264.75064"
       gradientUnits="userSpaceOnUse" /><clipPath
       clipPathUnits="userSpaceOnUse"
       id="clipPath22"><path
         id="path22"
         style="display:inline;fill:#8f00b3;fill-opacity:1;stroke-width:0.163691"
         d="M 4.2333312,0 C 1.8953271,0 1.25e-7,1.89533 -1.875e-6,4.2333299 V 8.4041401 57.694671 C -5.8749999e-6,60.03267 1.8953231,61.92801 4.2333312,61.92801 H 75.056926 c 2.338009,0 4.233341,-1.89533 4.233341,-4.233339 V 12.63747 c 0,-2.33801 -1.895332,-4.2333299 -4.233341,-4.2333299 H 35.421091 c 0,0 -4.02077,-5.53094 -5.766054,-6.8135401 C 27.90975,0.30799 25.881105,0 25.881105,0 Z"
         sodipodi:nodetypes="scccscccccccs"
         inkscape:label="back" /></clipPath><clipPath
       clipPathUnits="userSpaceOnUse"
       id="clipPath2"><path
         id="path4"
         style="display:inline;opacity:0.25;mix-blend-mode:normal;fill:#8f00b3;fill-opacity:1;stroke-width:0.163691"
         d="m 45.298168,208.48493 c -2.338004,0 -4.233331,1.89533 -4.233333,4.23333 v 4.17081 49.29053 c -4e-6,2.338 1.895325,4.23334 4.233333,4.23334 h 70.823592 c 2.33801,0 4.23334,-1.89533 4.23334,-4.23334 v -45.0572 c 0,-2.33801 -1.89533,-4.23333 -4.23334,-4.23333 H 76.485928 c 0,0 -4.020769,-5.53094 -5.766054,-6.81354 -1.745287,-1.28261 -3.773932,-1.5906 -3.773932,-1.5906 z"
         sodipodi:nodetypes="scccscccccccs"
         inkscape:label="back-clip" /></clipPath><inkscape:path-effect
       effect="construct_grid"
       id="path-effect11"
       is_visible="true"
       lpeversion="1"
       nr_x="16"
       nr_y="13" /><linearGradient
       inkscape:collect="always"
       xlink:href="#linearGradient104"
       id="linearGradient83"
       gradientUnits="userSpaceOnUse"
       x1="86.372406"
       y1="264.78183"
       x2="63.712975"
       y2="225.09235"
       gradientTransform="translate(2.2250001e-6)" /><linearGradient
       id="linearGradient104"
       inkscape:collect="always"><stop
         style="stop-color:#191919;stop-opacity:0.59638554;"
         offset="0"
         id="stop103" /><stop
         style="stop-color:#b4b4b4;stop-opacity:1;"
         offset="0.99866492"
         id="stop104" /></linearGradient><filter
       style="color-interpolation-filters:sRGB"
       inkscape:label="Drop Shadow"
       id="filter88-6"
       x="-0.030268633"
       y="-0.055656834"
       width="1.0605373"
       height="1.1017177"><feFlood
         result="flood"
         in="SourceGraphic"
         flood-opacity="0.152941"
         flood-color="rgb(0,0,0)"
         id="feFlood87-6" /><feGaussianBlur
         result="blur"
         in="SourceGraphic"
         stdDeviation="1.000000"
         id="feGaussianBlur87-0" /><feOffset
         result="offset"
         in="blur"
         dx="0.000000"
         dy="-0.500000"
         id="feOffset87-15" /><feComposite
         result="comp1"
         operator="in"
         in="flood"
         in2="offset"
         id="feComposite87-4" /><feComposite
         result="comp2"
         operator="over"
         in="SourceGraphic"
         in2="comp1"
         id="feComposite88-7" /></filter><linearGradient
       inkscape:collect="always"
       xlink:href="#linearGradient104"
       id="linearGradient95"
       x1="75.754089"
       y1="250.59525"
       x2="50.975491"
       y2="215.90512"
       gradientUnits="userSpaceOnUse"
       gradientTransform="translate(1.31025e-4,-0.005097)" /><filter
       style="color-interpolation-filters:sRGB;"
       inkscape:label="Drop Shadow"
       id="filter4"
       x="-0.026484967"
       y="-0.06238767"
       width="1.0529699"
       height="1.1377728"><feFlood
         result="flood"
         in="SourceGraphic"
         flood-opacity="0.501961"
         flood-color="rgb(0,0,0)"
         id="feFlood3" /><feGaussianBlur
         result="blur"
         in="SourceGraphic"
         stdDeviation="1.000000"
         id="feGaussianBlur3" /><feOffset
         result="offset"
         in="blur"
         dx="0.000000"
         dy="0.500000"
         id="feOffset3" /><feComposite
         result="comp1"
         operator="out"
         in="flood"
         in2="offset"
         id="feComposite3" /><feComposite
         result="comp2"
         operator="in"
         in="comp1"
         in2="SourceGraphic"
         id="feComposite4" /></filter></defs><metadata
     id="metadata5"><rdf:RDF><cc:Work
         rdf:about=""><dc:format>image/svg+xml</dc:format><dc:type
           rdf:resource="http://purl.org/dc/dcmitype/StillImage" /></cc:Work></rdf:RDF></metadata><g
     id="g1"
     inkscape:label="folder"
     style="display:inline"
     transform="matrix(0.74746458,0,0,0.74746458,-26.461175,-145.11302)"
     clip-path="none"><g
       id="g14"
       inkscape:label="back"
       transform="translate(1.31525e-4,-0.0051)"><g
         id="g22"
         inkscape:label="texture"
         transform="translate(41.064705,208.49026)"
         clip-path="url(#clipPath22)"
         style="display:inline;opacity:1;mix-blend-mode:normal" /><path
         id="rect10-6"
         style="display:inline;opacity:1;mix-blend-mode:normal;fill:url(#radialGradient95);stroke-width:0.163691"
         d="m 45.298035,208.49026 c -2.338004,0 -4.233331,1.89533 -4.233333,4.23333 v 4.17081 48.10025 c -4e-6,2.338 1.895325,4.23334 4.233333,4.23334 h 70.823595 c 2.33801,0 4.23334,-1.89533 4.23334,-4.23334 v -43.86692 c 0,-2.33801 -1.89533,-4.23333 -4.23334,-4.23333 H 76.48579 c 0,0 -4.020764,-5.53094 -5.766049,-6.81354 -1.745287,-1.28261 -3.773932,-1.5906 -3.773932,-1.5906 z"
         sodipodi:nodetypes="scccscccccccs"
         inkscape:label="back-shadow" /><path
         id="path94"
         style="display:inline;opacity:0.5;mix-blend-mode:overlay;fill:url(#linearGradient95);stroke-width:0.163691"
         d="m 45.298166,208.48516 c -2.338004,0 -4.233331,1.89533 -4.233333,4.23333 v 4.17081 48.10025 c -4e-6,2.338 1.895325,4.23334 4.233333,4.23334 h 70.823594 c 2.33801,0 4.23334,-1.89533 4.23334,-4.23334 v -43.86692 c 0,-2.33801 -1.89533,-4.23333 -4.23334,-4.23333 H 76.485922 c 0,0 -4.02077,-5.53094 -5.76605,-6.81354 -1.74529,-1.28261 -3.77393,-1.5906 -3.77393,-1.5906 z"
         sodipodi:nodetypes="scccscccccccs"
         inkscape:label="shine"
         transform="translate(-1.3146926e-4,0.00509939)" /></g><g
       id="g13"
       inkscape:label="front"
       style="display:inline"
       clip-path="url(#clipPath2)"><path
         style="display:inline;opacity:0.309598;fill:#000000;fill-opacity:1;stroke:none;stroke-width:0.144851;stroke-opacity:1;filter:url(#filter1881)"
         id="rect873"
         width="23.680208"
         height="5.4239588"
         x="45.49432"
         y="222.50819"
         transform="matrix(1.4382442,0,0,1.9286216,-22.754061,-206.48288)"
         inkscape:path-effect="#path-effect1331"
         d="m 47.610987,222.50819 h 19.446874 a 2.1166667,2.1166667 45 0 1 2.116667,2.11667 v 1.19063 a 2.1166667,2.1166667 135 0 1 -2.116667,2.11666 l -19.446874,0 a 2.1166667,2.1166667 45 0 1 -2.116667,-2.11666 v -1.19063 a 2.1166667,2.1166667 135 0 1 2.116667,-2.11667 z"
         sodipodi:type="rect"
         inkscape:label="inside"
         sodipodi:insensitive="true" /><path
         id="rect851"
         style="display:inline;opacity:1;fill:#808080;fill-opacity:1;stroke-width:0.264555;filter:url(#filter88)"
         d="m 76.400879,218.30819 v 4.19548 h -9.872185 c 4.876338,-0.01 6.185725,-1.43889 9.872185,-4.19548 z m 0,0 h 39.720751 c 2.3288,-0.009 4.22413,1.86919 4.23333,4.19548 H 76.400879 Z m -31.102581,4.19548 h 75.056672 v 43.68072 c 0,2.33549 -1.89533,4.22878 -4.23334,4.22878 H 45.298298 c -2.338008,0 -4.233337,-1.89329 -4.233334,-4.22878 v -39.45195 c 2e-6,-2.33549 1.89533,-4.22877 4.233334,-4.22877 z"
         inkscape:label="front"
         transform="translate(1.125e-6)"
         sodipodi:nodetypes="cccccccccccccsccc" /><g
         id="g1997"
         inkscape:label="face"
         style="display:inline;opacity:1;mix-blend-mode:normal"
         transform="translate(-9.4131291e-4,-0.00188475)"
         clip-path="url(#clipPath9)"><path
           id="rect351"
           style="display:inline;opacity:1;mix-blend-mode:normal;fill:#8e638e;fill-opacity:1;stroke:none;stroke-width:0.0668927;stroke-linecap:round;stroke-dasharray:0.200678, 0.200678;stroke-dashoffset:0;stroke-opacity:0.496471;paint-order:stroke fill markers;filter:url(#filter4)"
           d="m 60.888604,235.72473 v 19.82326 H 35.402447 v 18.64588 h 90.617443 v -18.64588 h -25.48615 v -19.82326 z"
           inkscape:label="shadow" /></g><path
         id="path2085-5"
         style="display:inline;opacity:1;mix-blend-mode:multiply;fill:url(#linearGradient11);fill-opacity:1;stroke-width:0.264726"
         inkscape:label="rim-bottom"
         d="m 41.065221,227.85704 a 4.2333333,4.2342314 0 0 0 -10e-4,0.005 v 38.31653 a 4.2333333,4.2342314 0 0 0 4.233333,4.23437 h 70.823066 a 4.2333333,4.2342314 0 0 0 4.23333,-4.23437 v -1.16324 a 4.2333333,4.2287744 0 0 1 -4.2323,4.21266 H 45.298554 a 4.2333333,4.2287744 0 0 1 -4.233333,-4.22868 z"
         transform="translate(1.125e-6)"
         sodipodi:insensitive="true" /><path
         id="rect851-36"
         style="display:inline;opacity:0.25;mix-blend-mode:normal;fill:url(#linearGradient1);fill-opacity:1;stroke-width:0.264555;filter:url(#filter88-9)"
         inkscape:label="rim-top"
         d="m 76.400657,218.30809 c -3.686456,2.75659 -4.995415,4.18561 -9.871748,4.19561 H 45.298163 a 4.2333333,4.2287744 0 0 0 -4.233333,4.22868 v 1.67277 c 0,-2.33801 1.895843,-4.23333 4.23385,-4.23333 h 21.721155 c 4.876335,-0.01 6.185809,-1.44019 9.872265,-4.19975 h 39.22965 c 2.3288,-0.009 4.22413,1.87095 4.23333,4.19975 v -1.66812 a 4.2166995,4.2121586 0 0 0 -4.23333,-4.19561 z M 41.06483,264.99465 v 0.005 a 4.2333333,4.2287744 0 0 0 10e-4,0.005 c -7e-6,-0.003 -10e-4,-0.006 -10e-4,-0.009 z m 79.29025,0 c 0,0.25949 -0.0312,0.51097 -0.076,0.75757 a 4.2333333,4.2287744 0 0 0 0.076,-0.75292 z m -0.11214,0.93741 c -0.0547,0.24129 -0.12406,0.47705 -0.21807,0.70073 a 4.2333333,4.2287744 0 0 0 0.21807,-0.70073 z m -78.860817,0.66042 a 4.2333333,4.2287744 0 0 0 0.01033,0.0331 c -0.0044,-0.0106 -0.006,-0.0225 -0.01033,-0.0331 z m 78.621557,0.0837 c -0.0922,0.2125 -0.20429,0.41397 -0.32866,0.60668 a 4.2333333,4.2287744 0 0 0 0.32866,-0.60668 z m -0.42374,0.74879 c -0.28043,0.39816 -0.62735,0.74451 -1.02526,1.02526 a 4.2333333,4.2287744 0 0 0 1.02526,-1.02526 z m -77.28211,0.55397 a 4.2333333,4.2287744 0 0 0 0.02015,0.0196 c -0.0067,-0.007 -0.01351,-0.013 -0.02015,-0.0196 z m 76.10698,0.57154 c -0.18401,0.1184 -0.37618,0.22449 -0.57826,0.31368 a 4.2333333,4.2287744 0 0 0 0.57826,-0.31368 z m -0.65112,0.34985 c -0.22189,0.0928 -0.45588,0.16128 -0.69505,0.21549 a 4.2333333,4.2287744 0 0 0 0.69505,-0.21549 z m -74.082301,10e-4 a 4.2333333,4.2287744 0 0 0 0.02791,0.009 c -0.009,-0.004 -0.01898,-0.005 -0.02791,-0.009 z m 73.206391,0.25011 c -0.24614,0.0445 -0.49706,0.0765 -0.75603,0.0765 a 4.2333333,4.2287744 0 0 0 0.75603,-0.0765 z"
         transform="translate(1.125e-6)"
         sodipodi:insensitive="true" /><path
         id="path82"
         style="display:inline;opacity:0.64;mix-blend-mode:overlay;fill:url(#linearGradient83);fill-opacity:1;stroke-width:0.264555;filter:url(#filter88-6)"
         d="m 76.400885,218.30819 v 4.19548 h -9.87219 c 4.87634,-0.01 6.18573,-1.43888 9.87219,-4.19548 z m 0,0 h 39.720745 c 2.3288,-0.009 4.22413,1.86919 4.23333,4.19548 H 76.400885 Z M 45.2983,222.50367 h 75.05667 v 43.68073 c 0,2.33549 -1.89533,4.22877 -4.23334,4.22877 H 45.2983 c -2.338008,0 -4.233337,-1.89328 -4.233334,-4.22878 v -39.45195 c 2e-6,-2.33548 1.89533,-4.22877 4.233334,-4.22877 z"
         inkscape:label="shine"
         sodipodi:nodetypes="cccccccccccccsccc"
         sodipodi:insensitive="true" /></g></g><path
     id="path11"
     style="display:inline;mix-blend-mode:normal;fill-opacity:1;stroke:#000000;stroke-width:0.188976;stroke-linecap:round;stroke-dasharray:0.566929, 0.566929;stroke-dashoffset:0;stroke-opacity:0.496471;paint-order:stroke fill markers"
     transform="matrix(0,-0.26458333,0.26458333,0,-52.778218,61.243964)"
     d="M 15.998267,215.47501 198.0013,215.47488 M 15.998234,229.47522 198.00126,229.47509 M 15.998201,243.47543 198.00123,243.4753 M 15.998168,257.47564 198.0012,257.47551 M 15.998135,271.47585 198.00116,271.47572 M 15.998102,285.47606 198.00113,285.47593 M 15.998069,299.47627 198.0011,299.47614 M 15.998036,313.47648 198.00106,313.47635 M 15.998003,327.47669 198.00103,327.47656 M 15.99797,341.4769 198.001,341.47677 M 15.997937,355.47711 198.00097,355.47698 M 15.997904,369.47732 198.00093,369.47719 M 15.997871,383.47753 198.0009,383.4774 M 15.997838,397.47774 198.00087,397.47761 M 15.997805,411.47795 198.00083,411.47782 M 15.997772,425.47816 198.0008,425.47803 M 15.997739,439.47837 198.00077,439.47824 M 15.998267,215.47501 15.997739,439.47837 M 29.9985,215.475 29.997972,439.47836 M 43.998733,215.47499 43.998205,439.47835 M 57.998966,215.47498 57.998438,439.47834 M 71.999199,215.47497 71.998671,439.47833 M 85.999432,215.47496 85.998904,439.47832 M 99.999665,215.47495 99.999137,439.47831 M 113.9999,215.47494 113.99937,439.4783 m 14.00076,-224.00337 -5.3e-4,224.00336 m 14.00076,-224.00337 -5.2e-4,224.00336 m 14.00076,-224.00337 -5.3e-4,224.00336 m 14.00076,-224.00337 -5.3e-4,224.00336 m 14.00076,-224.00337 -5.2e-4,224.00336 m 14.00076,-224.00337 -5.3e-4,224.00336"
     sodipodi:nodetypes="ccc"
     inkscape:label="grid8"
     inkscape:original-d="m 29.9985,215.475 -14.000233,1e-5 -3.3e-5,14.00021"
     inkscape:path-effect="#path-effect11"
     sodipodi:insensitive="true" /></svg>
