<?xml version="1.0" encoding="UTF-8" standalone="no"?>
<svg
   width="256"
   height="256"
   viewBox="0 0 67.733333 67.733332"
   version="1.1"
   id="svg8"
   inkscape:version="1.3 (0e150ed6c4, 2023-07-21)"
   sodipodi:docname="template.svg"
   xml:space="preserve"
   inkscape:export-filename="enderman-folder.svg"
   inkscape:export-xdpi="96"
   inkscape:export-ydpi="96"
   xmlns:inkscape="http://www.inkscape.org/namespaces/inkscape"
   xmlns:sodipodi="http://sodipodi.sourceforge.net/DTD/sodipodi-0.dtd"
   xmlns:xlink="http://www.w3.org/1999/xlink"
   xmlns="http://www.w3.org/2000/svg"
   xmlns:svg="http://www.w3.org/2000/svg"
   xmlns:rdf="http://www.w3.org/1999/02/22-rdf-syntax-ns#"
   xmlns:cc="http://creativecommons.org/ns#"
   xmlns:dc="http://purl.org/dc/elements/1.1/"><sodipodi:namedview
     id="base"
     pagecolor="#3f3f3f"
     bordercolor="#666666"
     borderopacity="1.0"
     inkscape:pageopacity="0.0"
     inkscape:pageshadow="2"
     inkscape:zoom="2.8284271"
     inkscape:cx="16.617009"
     inkscape:cy="179.95868"
     inkscape:document-units="mm"
     inkscape:current-layer="svg8"
     inkscape:document-rotation="0"
     showgrid="false"
     inkscape:window-width="2560"
     inkscape:window-height="1369"
     inkscape:window-x="-8"
     inkscape:window-y="-8"
     inkscape:window-maximized="1"
     inkscape:showpageshadow="0"
     inkscape:pagecheckerboard="true"
     inkscape:deskcolor="#3f3f3f"
     showguides="true"><sodipodi:guide
       position="4.2328765,12.344509"
       orientation="1,0"
       id="guide1"
       inkscape:locked="false" /><sodipodi:guide
       position="4.2328765,12.344509"
       orientation="0,-1"
       id="guide2"
       inkscape:locked="false" /><sodipodi:guide
       position="63.49914,12.344509"
       orientation="1,0"
       id="guide3"
       inkscape:locked="false" /><sodipodi:guide
       position="4.2328765,58.633332"
       orientation="0,-1"
       id="guide4"
       inkscape:locked="false" /></sodipodi:namedview><defs
     id="defs2"><inkscape:path-effect
       effect="construct_grid"
       id="path-effect9"
       is_visible="true"
       lpeversion="1"
       nr_x="28"
       nr_y="28" /><inkscape:path-effect
       effect="construct_grid"
       id="path-effect7"
       is_visible="true"
       lpeversion="1"
       nr_x="14"
       nr_y="14" /><inkscape:path-effect
       effect="construct_grid"
       id="path-effect6"
       is_visible="true"
       lpeversion="1"
       nr_x="5"
       nr_y="10" /><inkscape:path-effect
       effect="construct_grid"
       id="path-effect5"
       is_visible="true"
       lpeversion="1"
       nr_x="5"
       nr_y="5" /><linearGradient
       id="linearGradient2"
       inkscape:collect="always"><stop
         style="stop-color:#808080;stop-opacity:1;"
         offset="0"
         id="stop1" /><stop
         style="stop-color:#a5a5a5;stop-opacity:1;"
         offset="1"
         id="stop2" /></linearGradient><linearGradient
       id="linearGradient4"
       inkscape:collect="always"><stop
         style="stop-color:#999999;stop-opacity:0.25;"
         offset="0"
         id="stop3" /><stop
         style="stop-color:#cccccc;stop-opacity:1;"
         offset="1"
         id="stop4" /></linearGradient><linearGradient
       id="linearGradient24"
       inkscape:collect="always"><stop
         style="stop-color:#b2b2b2;stop-opacity:1;"
         offset="0"
         id="stop24" /><stop
         style="stop-color:#f2f2f2;stop-opacity:1;"
         offset="1"
         id="stop25" /></linearGradient><inkscape:path-effect
       effect="tiling"
       id="path-effect3"
       is_visible="true"
       lpeversion="1"
       unit="px"
       seed="1;1"
       lpesatellites="#path3 | #path4 | #path5 | #path6 | #path7 | #path8 | #path9 | #path10 | #path11 | #path12 | #path13 | #path14 | #path15 | #path211 | #path212 | #path213 | #path214 | #path215 | #path216 | #path217 | #path218 | #path219 | #path220 | #path221 | #path222 | #path223 | #path224 | #path225 | #path226 | #path227 | #path228 | #path229 | #path230 | #path231 | #path232 | #path233 | #path234 | #path235 | #path236 | #path237 | #path238 | #path239 | #path240 | #path241 | #path242 | #path243 | #path244 | #path245 | #path246 | #path247 | #path248 | #path249 | #path250 | #path251 | #path252 | #path253 | #path254 | #path255 | #path256 | #path257 | #path258 | #path259 | #path260 | #path261 | #path262 | #path263 | #path264 | #path265 | #path266 | #path267 | #path268 | #path269 | #path270 | #path271 | #path272 | #path273 | #path274 | #path275 | #path276 | #path277 | #path278 | #path279 | #path280 | #path281 | #path282 | #path283 | #path284 | #path285 | #path286 | #path287 | #path288 | #path289 | #path290 | #path291 | #path292 | #path293 | #path294 | #path295 | #path296 | #path297 | #path298 | #path299 | #path300 | #path301 | #path302 | #path303 | #path304 | #path305 | #path306 | #path307 | #path308 | #path309 | #path310 | #path311 | #path312 | #path313 | #path314 | #path315 | #path316 | #path317 | #path318 | #path319 | #path320 | #path321 | #path322 | #path323 | #path324 | #path325 | #path326 | #path327 | #path328 | #path329 | #path330 | #path331 | #path332 | #path333 | #path334 | #path335 | #path336 | #path337 | #path338 | #path339 | #path340 | #path341 | #path342 | #path343 | #path344 | #path345 | #path346 | #path347 | #path348 | #path349 | #path350 | #path156 | #path157 | #path158 | #path159 | #path160 | #path161 | #path162 | #path163 | #path164 | #path165 | #path166 | #path167 | #path168 | #path169 | #path170 | #path171 | #path172 | #path173 | #path174 | #path175 | #path176 | #path177 | #path178 | #path179 | #path180 | #path181 | #path182 | #path183 | #path184 | #path185 | #path186 | #path187 | #path188 | #path189 | #path190 | #path191 | #path192 | #path193 | #path194 | #path195 | #path196 | #path197 | #path198 | #path199 | #path200 | #path201 | #path202 | #path203 | #path204 | #path205 | #path206 | #path207 | #path208 | #path209 | #path210 | #path211"
       num_rows="14"
       num_cols="11"
       gapx="0"
       gapy="0"
       offset="0"
       offset_type="false"
       scale="0"
       rotate="0"
       mirrorrowsx="false"
       mirrorrowsy="false"
       mirrorcolsx="false"
       mirrorcolsy="false"
       mirrortrans="false"
       shrink_interp="false"
       split_items="false"
       link_styles="false"
       interpolate_scalex="false"
       interpolate_scaley="true"
       interpolate_rotatex="false"
       interpolate_rotatey="true"
       random_scale="false"
       random_rotate="false"
       random_gap_y="false"
       random_gap_x="false"
       transformorigin="matrix(0,1.0166948,-1.0169731,0,316.07118,222.90993)" /><inkscape:path-effect
       effect="tiling"
       id="path-effect2"
       is_visible="false"
       lpeversion="1"
       unit="px"
       seed="1;1"
       lpesatellites=""
       num_rows="6"
       num_cols="16"
       gapx="0"
       gapy="0"
       offset="0"
       offset_type="false"
       scale="0"
       rotate="0"
       mirrorrowsx="false"
       mirrorrowsy="false"
       mirrorcolsx="false"
       mirrorcolsy="false"
       mirrortrans="false"
       shrink_interp="false"
       split_items="false"
       link_styles="false"
       interpolate_scalex="false"
       interpolate_scaley="true"
       interpolate_rotatex="false"
       interpolate_rotatey="true"
       random_scale="false"
       random_rotate="false"
       random_gap_y="false"
       random_gap_x="false"
       transformorigin="matrix(-0.99984771,0.01744864,-0.0174582,-0.99984764,92.45787,534.36624)" /><inkscape:path-effect
       effect="bounding_box"
       id="path-effect1893"
       is_visible="true"
       lpeversion="1"
       linkedpath=""
       visualbounds="true" /><inkscape:path-effect
       effect="fillet_chamfer"
       id="path-effect1331"
       is_visible="true"
       lpeversion="1"
       satellites_param="F,0,0,1,0,2.1166667,0,1 @ F,0,0,1,0,2.1166667,0,1 @ F,0,0,1,0,2.1166667,0,1 @ F,0,0,1,0,2.1166667,0,1"
       unit="px"
       method="arc"
       mode="F"
       radius="8"
       chamfer_steps="1"
       flexible="false"
       use_knot_distance="true"
       apply_no_radius="true"
       apply_with_radius="true"
       only_selected="false"
       hide_knots="false"
       nodesatellites_param="F,0,0,1,0,2.1166667,0,1 @ F,0,0,1,0,2.1166667,0,1 @ F,0,0,1,0,2.1166667,0,1 @ F,0,0,1,0,2.1166667,0,1" /><inkscape:path-effect
       effect="fillet_chamfer"
       id="path-effect24"
       is_visible="true"
       lpeversion="1"
       satellites_param="F,0,0,1,0,4.2333333,0,1 @ F,0,0,1,0,0,0,1 @ F,0,0,1,0,4.2333333,0,1 @ F,0,0,1,0,4.2333333,0,1"
       unit="px"
       method="auto"
       mode="F"
       radius="16"
       chamfer_steps="1"
       flexible="false"
       use_knot_distance="true"
       apply_no_radius="true"
       apply_with_radius="true"
       only_selected="false"
       hide_knots="false"
       nodesatellites_param="F,0,0,1,0,4.2333333,0,1 @ F,0,0,1,0,0,0,1 @ F,0,0,1,0,4.2333333,0,1 @ F,0,0,1,0,4.2333333,0,1" /><inkscape:path-effect
       effect="fillet_chamfer"
       id="path-effect22"
       is_visible="true"
       lpeversion="1"
       satellites_param="F,0,0,1,0,0,0,1 @ F,0,0,1,0,4.2333333,0,1 @ F,0,0,1,0,0,0,1 @ F,0,0,1,0,0,0,1"
       unit="px"
       method="auto"
       mode="F"
       radius="16"
       chamfer_steps="1"
       flexible="false"
       use_knot_distance="true"
       apply_no_radius="true"
       apply_with_radius="true"
       only_selected="false"
       hide_knots="false"
       nodesatellites_param="F,0,0,1,0,0,0,1 @ F,0,0,1,0,4.2333333,0,1 @ F,0,0,1,0,0,0,1 @ F,0,0,1,0,0,0,1" /><inkscape:path-effect
       effect="fillet_chamfer"
       id="path-effect21"
       is_visible="true"
       lpeversion="1"
       satellites_param="F,0,0,1,0,0,0,1 @ F,0,0,1,0,4.2333333,0,1 @ F,0,0,1,0,4.2333333,0,1 @ F,0,0,1,0,4.2333333,0,1"
       unit="px"
       method="auto"
       mode="F"
       radius="16"
       chamfer_steps="1"
       flexible="false"
       use_knot_distance="true"
       apply_no_radius="true"
       apply_with_radius="true"
       only_selected="false"
       hide_knots="false"
       nodesatellites_param="F,0,0,1,0,0,0,1 @ F,0,0,1,0,4.2333333,0,1 @ F,0,0,1,0,4.2333333,0,1 @ F,0,0,1,0,4.2333333,0,1" /><inkscape:path-effect
       effect="fillet_chamfer"
       id="path-effect19"
       is_visible="true"
       lpeversion="1"
       satellites_param="F,0,0,1,0,4.2333333,0,1 @ F,0,0,1,0,0,0,1 @ F,0,0,1,0,0,0,1 @ F,0,0,1,0,0,0,1"
       unit="px"
       method="auto"
       mode="F"
       radius="16"
       chamfer_steps="1"
       flexible="false"
       use_knot_distance="true"
       apply_no_radius="true"
       apply_with_radius="true"
       only_selected="false"
       hide_knots="false"
       nodesatellites_param="F,0,0,1,0,4.2333333,0,1 @ F,0,0,1,0,0,0,1 @ F,0,0,1,0,0,0,1 @ F,0,0,1,0,0,0,1" /><filter
       inkscape:collect="always"
       style="color-interpolation-filters:sRGB"
       id="filter1881"
       x="-0.086771889"
       width="1.1735438"
       y="-0.37883325"
       height="1.7576665"><feGaussianBlur
         inkscape:collect="always"
         stdDeviation="0.85615684"
         id="feGaussianBlur1883" /></filter><clipPath
       clipPathUnits="userSpaceOnUse"
       id="clipPath3"><path
         id="path3"
         style="display:inline;fill:#4f59ea;fill-opacity:1;stroke-width:0.264555"
         inkscape:label="rim-top"
         d="m 76.400974,218.3083 c -3.686456,2.75658 -4.995932,4.1856 -9.872265,4.1956 H 45.29848 a 4.2333333,4.2287744 0 0 0 -4.233333,4.22869 v 1.12448 a 4.2333333,4.2342314 0 0 1 4.232299,-4.2292 h 21.230229 c 4.876333,-0.01 6.185808,-1.44063 9.872266,-4.20078 h 39.720579 a 4.2166995,4.2175943 0 0 1 4.23333,4.20078 v 41.38765 a 4.2333333,4.2287744 0 0 0 0.001,-0.016 v -42.4956 a 4.2166995,4.2121586 0 0 0 -4.23333,-4.1956 z" /></clipPath><clipPath
       clipPathUnits="userSpaceOnUse"
       id="clipPath7"><path
         id="path7"
         style="display:inline;opacity:1;fill:#d21e1e;fill-opacity:1;stroke-width:0.264726"
         inkscape:label="rim-bottom"
         d="m 41.065222,227.85704 a 4.2333333,4.2342314 0 0 0 -10e-4,0.005 v 38.31653 a 4.2333333,4.2342314 0 0 0 4.233333,4.23437 h 70.823065 a 4.2333333,4.2342314 0 0 0 4.23333,-4.23437 v -1.16324 a 4.2333333,4.2287744 0 0 1 -4.2323,4.21266 H 45.298555 a 4.2333333,4.2287744 0 0 1 -4.233333,-4.22868 z" /></clipPath><clipPath
       clipPathUnits="userSpaceOnUse"
       id="clipPath9"><g
         id="g10"
         transform="translate(16.140223,14.053346)"
         style="display:inline"
         inkscape:label="face-clip"><path
           id="path9"
           style="display:inline;fill:#ea7d4f;fill-opacity:1;stroke-width:0.264555"
           d="m 60.26178,204.25696 v 4.19548 h -9.872185 c 4.876338,-0.01 6.185724,-1.43889 9.872185,-4.19548 z m 0,0 h 39.720749 a 4.2166995,4.2121587 0 0 1 4.233331,4.19548 H 60.26178 Z m -31.102581,4.19548 h 75.056671 v 42.49587 a 4.2333333,4.2287743 0 0 1 -4.233341,4.22878 h -70.82333 a 4.2333333,4.2287743 0 0 1 -4.233334,-4.22878 v -38.2671 a 4.2333333,4.2287743 0 0 1 4.233334,-4.22877 z"
           inkscape:label="front" /><path
           id="path10"
           style="display:inline;opacity:0.5;mix-blend-mode:luminosity;fill:#141414;fill-opacity:1;stroke-width:0.264726"
           inkscape:label="rim-bottom"
           d="m 24.926121,213.80581 a 4.2333333,4.2342314 0 0 0 -10e-4,0.005 v 38.31653 a 4.2333333,4.2342314 0 0 0 4.233333,4.23437 H 99.98152 a 4.2333333,4.2342314 0 0 0 4.23333,-4.23437 v -1.16324 a 4.2333333,4.2287744 0 0 1 -4.2323,4.21266 H 29.159454 a 4.2333333,4.2287744 0 0 1 -4.233333,-4.22868 z" /></g></clipPath><linearGradient
       inkscape:collect="always"
       xlink:href="#linearGradient24"
       id="linearGradient23"
       x1="109.02695"
       y1="264.74124"
       x2="80.702972"
       y2="230.75444"
       gradientUnits="userSpaceOnUse" /><filter
       style="color-interpolation-filters:sRGB"
       inkscape:label="Drop Shadow"
       id="filter69"
       x="-0.18538756"
       y="-1.4813433"
       width="1.3707751"
       height="4.139037"><feFlood
         result="flood"
         in="SourceGraphic"
         flood-opacity="0.600000"
         flood-color="rgb(200,0,250)"
         id="feFlood68" /><feGaussianBlur
         result="blur"
         in="SourceGraphic"
         stdDeviation="2.500000"
         id="feGaussianBlur68" /><feOffset
         result="offset"
         in="blur"
         dx="0.000000"
         dy="0.500000"
         id="feOffset68" /><feComposite
         result="comp1"
         operator="in"
         in="flood"
         in2="offset"
         id="feComposite68" /><feComposite
         result="fbSourceGraphic"
         operator="over"
         in="SourceGraphic"
         in2="comp1"
         id="feComposite69" /><feColorMatrix
         result="fbSourceGraphicAlpha"
         in="fbSourceGraphic"
         values="0 0 0 -1 0 0 0 0 -1 0 0 0 0 -1 0 0 0 0 1 0"
         id="feColorMatrix9" /><feFlood
         id="feFlood9"
         result="flood"
         in="fbSourceGraphic"
         flood-opacity="0.752941"
         flood-color="rgb(27,27,27)" /><feGaussianBlur
         id="feGaussianBlur9"
         result="blur"
         in="fbSourceGraphic"
         stdDeviation="1.000000" /><feOffset
         id="feOffset9"
         result="offset"
         in="blur"
         dx="0.000000"
         dy="0.500000" /><feComposite
         id="feComposite9"
         result="comp1"
         operator="in"
         in="flood"
         in2="offset" /><feComposite
         id="feComposite10"
         result="comp2"
         operator="over"
         in="fbSourceGraphic"
         in2="comp1" /></filter><filter
       style="color-interpolation-filters:sRGB"
       inkscape:label="Drop Shadow"
       id="filter88"
       x="-0.030268632"
       y="-0.055656834"
       width="1.0605373"
       height="1.1017177"><feFlood
         result="flood"
         in="SourceGraphic"
         flood-opacity="0.152941"
         flood-color="rgb(0,0,0)"
         id="feFlood87" /><feGaussianBlur
         result="blur"
         in="SourceGraphic"
         stdDeviation="1.000000"
         id="feGaussianBlur87" /><feOffset
         result="offset"
         in="blur"
         dx="0.000000"
         dy="-0.500000"
         id="feOffset87" /><feComposite
         result="comp1"
         operator="in"
         in="flood"
         in2="offset"
         id="feComposite87" /><feComposite
         result="comp2"
         operator="over"
         in="SourceGraphic"
         in2="comp1"
         id="feComposite88" /></filter><filter
       style="color-interpolation-filters:sRGB"
       inkscape:label="Drop Shadow"
       id="filter88-9"
       x="-0.030268539"
       y="-0.056952213"
       width="1.0605371"
       height="1.1040851"><feFlood
         result="flood"
         in="SourceGraphic"
         flood-opacity="0.152941"
         flood-color="rgb(0,0,0)"
         id="feFlood87-2" /><feGaussianBlur
         result="blur"
         in="SourceGraphic"
         stdDeviation="1.000000"
         id="feGaussianBlur87-8" /><feOffset
         result="offset"
         in="blur"
         dx="0.000000"
         dy="-0.500000"
         id="feOffset87-1" /><feComposite
         result="comp1"
         operator="in"
         in="flood"
         in2="offset"
         id="feComposite87-3" /><feComposite
         result="comp2"
         operator="over"
         in="SourceGraphic"
         in2="comp1"
         id="feComposite88-8" /></filter><linearGradient
       inkscape:collect="always"
       xlink:href="#linearGradient4"
       id="linearGradient1"
       gradientUnits="userSpaceOnUse"
       x1="109.02695"
       y1="264.74124"
       x2="52.391197"
       y2="264.75079"
       gradientTransform="translate(1.2725e-5,-1.507e-4)" /><linearGradient
       inkscape:collect="always"
       xlink:href="#linearGradient2"
       id="linearGradient11"
       x1="109.02695"
       y1="264.74124"
       x2="52.391209"
       y2="264.75064"
       gradientUnits="userSpaceOnUse" /><clipPath
       clipPathUnits="userSpaceOnUse"
       id="clipPath22"><path
         id="path22"
         style="display:inline;fill:#8f00b3;fill-opacity:1;stroke-width:0.163691"
         d="M 4.2333312,0 C 1.8953271,0 1.25e-7,1.89533 -1.875e-6,4.2333299 V 8.4041401 57.694671 C -5.8749999e-6,60.03267 1.8953231,61.92801 4.2333312,61.92801 H 75.056926 c 2.338009,0 4.233341,-1.89533 4.233341,-4.233339 V 12.63747 c 0,-2.33801 -1.895332,-4.2333299 -4.233341,-4.2333299 H 35.421091 c 0,0 -4.02077,-5.53094 -5.766054,-6.8135401 C 27.90975,0.30799 25.881105,0 25.881105,0 Z"
         sodipodi:nodetypes="scccscccccccs"
         inkscape:label="back" /></clipPath><clipPath
       clipPathUnits="userSpaceOnUse"
       id="clipPath2"><path
         id="path4"
         style="display:inline;opacity:0.25;mix-blend-mode:normal;fill:#8f00b3;fill-opacity:1;stroke-width:0.163691"
         d="m 45.298168,208.48493 c -2.338004,0 -4.233331,1.89533 -4.233333,4.23333 v 4.17081 49.29053 c -4e-6,2.338 1.895325,4.23334 4.233333,4.23334 h 70.823592 c 2.33801,0 4.23334,-1.89533 4.23334,-4.23334 v -45.0572 c 0,-2.33801 -1.89533,-4.23333 -4.23334,-4.23333 H 76.485928 c 0,0 -4.020769,-5.53094 -5.766054,-6.81354 -1.745287,-1.28261 -3.773932,-1.5906 -3.773932,-1.5906 z"
         sodipodi:nodetypes="scccscccccccs"
         inkscape:label="back-clip" /></clipPath><inkscape:path-effect
       effect="construct_grid"
       id="path-effect11"
       is_visible="true"
       lpeversion="1"
       nr_x="16"
       nr_y="16" /><linearGradient
       inkscape:collect="always"
       xlink:href="#linearGradient104"
       id="linearGradient14"
       gradientUnits="userSpaceOnUse"
       gradientTransform="translate(2.2250001e-6)"
       x1="86.372406"
       y1="264.78183"
       x2="63.712975"
       y2="225.09235" /><linearGradient
       id="linearGradient104"
       inkscape:collect="always"><stop
         style="stop-color:#191919;stop-opacity:0.59638554;"
         offset="0"
         id="stop103" /><stop
         style="stop-color:#b4b4b4;stop-opacity:1;"
         offset="0.99866492"
         id="stop104" /></linearGradient><filter
       style="color-interpolation-filters:sRGB"
       inkscape:label="Drop Shadow"
       id="filter88-6-8"
       x="-0.030268633"
       y="-0.055656834"
       width="1.0605373"
       height="1.1017177"><feFlood
         result="flood"
         in="SourceGraphic"
         flood-opacity="0.152941"
         flood-color="rgb(0,0,0)"
         id="feFlood87-6-5" /><feGaussianBlur
         result="blur"
         in="SourceGraphic"
         stdDeviation="1.000000"
         id="feGaussianBlur87-0-2" /><feOffset
         result="offset"
         in="blur"
         dx="0.000000"
         dy="-0.500000"
         id="feOffset87-15-6" /><feComposite
         result="comp1"
         operator="in"
         in="flood"
         in2="offset"
         id="feComposite87-4-8" /><feComposite
         result="comp2"
         operator="over"
         in="SourceGraphic"
         in2="comp1"
         id="feComposite88-7-0" /></filter><radialGradient
       inkscape:collect="always"
       xlink:href="#linearGradient94-1"
       id="radialGradient95-5"
       cx="80.709839"
       cy="238.85913"
       fx="80.709839"
       fy="238.85913"
       r="39.645134"
       gradientTransform="matrix(3.9828986,0,0,0.76601746,-240.74926,55.888857)"
       gradientUnits="userSpaceOnUse" /><linearGradient
       id="linearGradient94-1"
       inkscape:collect="always"><stop
         style="stop-color:#404040;stop-opacity:0.6005435;"
         offset="0"
         id="stop94-5" /><stop
         style="stop-color:#1a1a1a;stop-opacity:0.34755135;"
         offset="1"
         id="stop95-4" /></linearGradient><linearGradient
       inkscape:collect="always"
       xlink:href="#linearGradient104"
       id="linearGradient10"
       gradientUnits="userSpaceOnUse"
       gradientTransform="translate(3.1e-6)"
       x1="75.754089"
       y1="250.59525"
       x2="50.975491"
       y2="215.90512" /></defs><metadata
     id="metadata5"><rdf:RDF><cc:Work
         rdf:about=""><dc:format>image/svg+xml</dc:format><dc:type
           rdf:resource="http://purl.org/dc/dcmitype/StillImage" /></cc:Work></rdf:RDF></metadata><g
     id="g1"
     inkscape:label="folder-icon"
     style="display:inline"
     transform="matrix(0.74746458,0,0,0.74746458,-26.461175,-146.73527)"
     clip-path="none"><g
       id="g14"
       inkscape:label="back"
       transform="translate(1.31525e-4,-0.0051)"><path
         id="rect10"
         style="display:inline;opacity:1;fill:#ffffff;fill-opacity:1;stroke-width:0.163691"
         d="m 45.298038,208.49026 c -2.338004,0 -4.233331,1.89533 -4.233333,4.23333 v 4.17081 48.10025 c -4e-6,2.338 1.895325,4.23334 4.233333,4.23334 h 70.823592 c 2.33801,0 4.23334,-1.89533 4.23334,-4.23334 v -43.86692 c 0,-2.33801 -1.89533,-4.23333 -4.23334,-4.23333 H 76.485798 c 0,0 -4.020769,-5.53094 -5.766054,-6.81354 -1.745287,-1.28261 -3.773932,-1.5906 -3.773932,-1.5906 z"
         sodipodi:nodetypes="scccscccccccs"
         inkscape:label="fill (hide/delete if using texture)" /><g
         id="g22"
         inkscape:label="texture (TEXTURE/PIXEL ART GOES HERE!)"
         transform="translate(41.064705,208.49026)"
         clip-path="url(#clipPath22)"
         style="display:inline;opacity:1;mix-blend-mode:normal" /><path
         id="rect10-6-0"
         style="display:inline;mix-blend-mode:multiply;fill:url(#radialGradient95-5);stroke-width:0.163691"
         d="m 45.298038,208.49026 c -2.338004,0 -4.233331,1.89533 -4.233333,4.23333 v 4.17081 48.10025 c -4e-6,2.338 1.895325,4.23334 4.233333,4.23334 h 70.823602 c 2.33801,0 4.23334,-1.89533 4.23334,-4.23334 v -43.86692 c 0,-2.33801 -1.89533,-4.23333 -4.23334,-4.23333 H 76.485793 c 0,0 -4.020764,-5.53094 -5.766049,-6.81354 -1.745287,-1.28261 -3.773932,-1.5906 -3.773932,-1.5906 z"
         sodipodi:nodetypes="scccscccccccs"
         inkscape:label="shadow"
         sodipodi:insensitive="true" /><path
         id="path94-8"
         style="display:inline;opacity:0.5;mix-blend-mode:overlay;fill:url(#linearGradient10);stroke-width:0.163691"
         d="m 45.298038,208.49026 c -2.338004,0 -4.233331,1.89533 -4.233333,4.23333 v 4.17081 48.10025 c -4e-6,2.338 1.895325,4.23334 4.233333,4.23334 h 70.823602 c 2.33801,0 4.23334,-1.89533 4.23334,-4.23334 v -43.86692 c 0,-2.33801 -1.89533,-4.23333 -4.23334,-4.23333 H 76.485794 c 0,0 -4.02077,-5.53094 -5.76605,-6.81354 -1.74529,-1.28261 -3.77393,-1.5906 -3.77393,-1.5906 z"
         sodipodi:nodetypes="scccscccccccs"
         inkscape:label="shine"
         sodipodi:insensitive="true" /></g><g
       id="g13"
       inkscape:label="front"
       style="display:inline"
       clip-path="url(#clipPath2)"><path
         id="rect873"
         transform="matrix(1.4382442,0,0,1.9286216,-22.754063,-206.48288)"
         d="m 47.610987,222.50819 h 19.446874 a 2.1166667,2.1166667 45 0 1 2.116667,2.11667 v 1.19063 a 2.1166667,2.1166667 135 0 1 -2.116667,2.11666 H 47.610987 a 2.1166667,2.1166667 45 0 1 -2.116667,-2.11666 v -1.19063 a 2.1166667,2.1166667 135 0 1 2.116667,-2.11667 z"
         style="display:inline;opacity:0.309598;fill:#000000;fill-opacity:1;stroke:none;stroke-width:0.144851;stroke-opacity:1;filter:url(#filter1881)"
         inkscape:label="shadow"
         sodipodi:insensitive="true" /><path
         id="rect851"
         style="display:inline;opacity:1;fill:url(#linearGradient23);fill-opacity:1;stroke-width:0.264555;filter:url(#filter88)"
         d="m 76.400879,218.30819 v 4.19548 h -9.872185 c 4.876338,-0.01 6.185725,-1.43889 9.872185,-4.19548 z m 0,0 h 39.720751 c 2.3288,-0.009 4.22413,1.86919 4.23333,4.19548 H 76.400879 Z m -31.102581,4.19548 h 75.056672 v 43.68072 c 0,2.33549 -1.89533,4.22878 -4.23334,4.22878 H 45.298298 c -2.338008,0 -4.233337,-1.89329 -4.233334,-4.22878 v -39.45195 c 2e-6,-2.33549 1.89533,-4.22877 4.233334,-4.22877 z"
         inkscape:label="fill (hide/delete if using texture)"
         transform="translate(1.125e-6)"
         sodipodi:nodetypes="cccccccccccccsccc" /><g
         id="g1997"
         inkscape:label="texture (TEXTURE/PIXEL ART GOES HERE!)"
         style="display:inline;opacity:1;mix-blend-mode:normal"
         transform="translate(-9.4131291e-4,-0.00188475)"
         clip-path="url(#clipPath9)" /><path
         id="path2085-5"
         style="display:inline;opacity:1;mix-blend-mode:multiply;fill:url(#linearGradient11);fill-opacity:1;stroke-width:0.264726"
         inkscape:label="rim-bottom"
         d="m 41.065221,227.85704 a 4.2333333,4.2342314 0 0 0 -10e-4,0.005 v 38.31653 a 4.2333333,4.2342314 0 0 0 4.233333,4.23437 h 70.823066 a 4.2333333,4.2342314 0 0 0 4.23333,-4.23437 v -1.16324 a 4.2333333,4.2287744 0 0 1 -4.2323,4.21266 H 45.298554 a 4.2333333,4.2287744 0 0 1 -4.233333,-4.22868 z"
         transform="translate(1.125e-6)"
         sodipodi:insensitive="true" /><path
         id="rect851-36"
         style="display:inline;opacity:1;mix-blend-mode:hard-light;fill:url(#linearGradient1);fill-opacity:1;stroke-width:0.264555;filter:url(#filter88-9)"
         inkscape:label="rim-top"
         d="m 76.400657,218.30809 c -3.686456,2.75659 -4.995415,4.18561 -9.871748,4.19561 H 45.298163 a 4.2333333,4.2287744 0 0 0 -4.233333,4.22868 v 1.67277 c 0,-2.33801 1.895843,-4.23333 4.23385,-4.23333 h 21.721155 c 4.876335,-0.01 6.185809,-1.44019 9.872265,-4.19975 h 39.22965 c 2.3288,-0.009 4.22413,1.87095 4.23333,4.19975 v -1.66812 a 4.2166995,4.2121586 0 0 0 -4.23333,-4.19561 z M 41.06483,264.99465 v 0.005 a 4.2333333,4.2287744 0 0 0 10e-4,0.005 c -7e-6,-0.003 -10e-4,-0.006 -10e-4,-0.009 z m 79.29025,0 c 0,0.25949 -0.0312,0.51097 -0.076,0.75757 a 4.2333333,4.2287744 0 0 0 0.076,-0.75292 z m -0.11214,0.93741 c -0.0547,0.24129 -0.12406,0.47705 -0.21807,0.70073 a 4.2333333,4.2287744 0 0 0 0.21807,-0.70073 z m -78.860817,0.66042 a 4.2333333,4.2287744 0 0 0 0.01033,0.0331 c -0.0044,-0.0106 -0.006,-0.0225 -0.01033,-0.0331 z m 78.621557,0.0837 c -0.0922,0.2125 -0.20429,0.41397 -0.32866,0.60668 a 4.2333333,4.2287744 0 0 0 0.32866,-0.60668 z m -0.42374,0.74879 c -0.28043,0.39816 -0.62735,0.74451 -1.02526,1.02526 a 4.2333333,4.2287744 0 0 0 1.02526,-1.02526 z m -77.28211,0.55397 a 4.2333333,4.2287744 0 0 0 0.02015,0.0196 c -0.0067,-0.007 -0.01351,-0.013 -0.02015,-0.0196 z m 76.10698,0.57154 c -0.18401,0.1184 -0.37618,0.22449 -0.57826,0.31368 a 4.2333333,4.2287744 0 0 0 0.57826,-0.31368 z m -0.65112,0.34985 c -0.22189,0.0928 -0.45588,0.16128 -0.69505,0.21549 a 4.2333333,4.2287744 0 0 0 0.69505,-0.21549 z m -74.082301,10e-4 a 4.2333333,4.2287744 0 0 0 0.02791,0.009 c -0.009,-0.004 -0.01898,-0.005 -0.02791,-0.009 z m 73.206391,0.25011 c -0.24614,0.0445 -0.49706,0.0765 -0.75603,0.0765 a 4.2333333,4.2287744 0 0 0 0.75603,-0.0765 z"
         transform="translate(1.125e-6)"
         sodipodi:insensitive="true" /><path
         id="path82-5"
         style="display:inline;opacity:0.64;mix-blend-mode:overlay;fill:url(#linearGradient14);fill-opacity:1;stroke-width:0.264555;filter:url(#filter88-6-8)"
         d="m 76.400885,218.30819 v 4.19548 h -9.87219 c 4.87634,-0.01 6.18573,-1.43888 9.87219,-4.19548 z m 0,0 h 39.720745 c 2.3288,-0.009 4.22413,1.86919 4.23333,4.19548 H 76.400885 Z M 45.2983,222.50367 h 75.05667 v 43.68073 c 0,2.33549 -1.89533,4.22877 -4.23334,4.22877 H 45.2983 c -2.338008,0 -4.233337,-1.89328 -4.233334,-4.22878 v -39.45195 c 2e-6,-2.33548 1.89533,-4.22877 4.233334,-4.22877 z"
         inkscape:label="shine"
         sodipodi:nodetypes="cccccccccccccsccc"
         transform="translate(-0.00449542)"
         sodipodi:insensitive="true" /></g></g><g
     id="g2"
     inkscape:label="grids (choose one and delete/hide others)"
     style="display:inline"
     transform="translate(0,-1.6222522)"><path
       id="path8"
       style="display:none;fill:none;stroke:#000000;stroke-width:0.1;stroke-linecap:round;stroke-dasharray:none;stroke-opacity:0.497647;paint-order:stroke fill markers"
       d="M 4.2328766,57.011075 V -2.255573 M 6.3495335,57.011084 V -2.255564 M 8.4661904,57.011093 V -2.255555 M 10.582847,57.011102 V -2.255546 m 2.116657,59.266657 V -2.255537 M 14.816161,57.01112 V -2.255528 m 2.116657,59.266657 V -2.255519 m 2.116657,59.266657 V -2.25551 m 2.116657,59.266657 V -2.255501 m 2.116657,59.266657 V -2.255492 m 2.116657,59.266657 V -2.255483 m 2.116656,59.266657 V -2.255474 m 2.116657,59.266657 V -2.255465 m 2.116657,59.266657 V -2.255456 m 2.116657,59.266657 V -2.255447 M 35.98273,57.01121 V -2.255438 m 2.116657,59.266657 V -2.255429 m 2.116657,59.266657 V -2.25542 m 2.116657,59.266657 V -2.255411 m 2.116657,59.266657 V -2.255402 m 2.116657,59.266657 V -2.255393 m 2.116657,59.266657 V -2.255384 m 2.116656,59.266657 V -2.255375 m 2.116657,59.266657 V -2.255366 m 2.116657,59.266657 V -2.255357 M 57.149299,57.0113 V -2.255348 m 2.116657,59.266657 V -2.255339 m 2.116657,59.266657 V -2.25533 M 63.49927,57.011327 V -2.255321 M 4.2328766,57.011075 63.49927,57.011327 M 4.2328766,54.894409 63.49927,54.894661 M 4.2328766,52.777743 63.49927,52.777995 M 4.2328766,50.661077 63.49927,50.661329 M 4.2328766,48.544411 63.49927,48.544663 M 4.2328766,46.427745 63.49927,46.427997 M 4.2328766,44.311079 63.49927,44.311331 M 4.2328766,42.194413 63.49927,42.194665 M 4.2328766,40.077747 63.49927,40.077999 M 4.2328766,37.961081 63.49927,37.961333 M 4.2328766,35.844415 63.49927,35.844667 M 4.2328766,33.727749 63.49927,33.728001 M 4.2328766,31.611083 63.49927,31.611335 M 4.2328766,29.494417 63.49927,29.494669 M 4.2328766,27.377751 63.49927,27.378003 M 4.2328766,25.261085 63.49927,25.261337 M 4.2328766,23.144419 63.49927,23.144671 M 4.2328766,21.027753 63.49927,21.028005 M 4.2328766,18.911087 63.49927,18.911339 M 4.2328766,16.794421 63.49927,16.794673 M 4.2328766,14.677755 63.49927,14.678007 M 4.2328766,12.561089 63.49927,12.561341 M 4.2328766,10.444423 63.49927,10.444675 M 4.2328766,8.327757 63.49927,8.328009 M 4.2328766,6.211091 63.49927,6.211343 M 4.2328766,4.094425 63.49927,4.094677 M 4.2328766,1.977759 63.49927,1.978011 M 4.2328766,-0.138907 63.49927,-0.138655 M 4.2328766,-2.255573 63.49927,-2.255321"
       sodipodi:nodetypes="ccc"
       inkscape:label="grid14"
       inkscape:original-d="m 4.2328766,54.894409 v 2.116666 l 2.1166569,9e-6"
       inkscape:path-effect="#path-effect9"
       sodipodi:insensitive="true" /><path
       id="path11"
       style="display:none;mix-blend-mode:normal;fill:none;stroke:#000000;stroke-width:0.377953;stroke-linecap:round;stroke-dasharray:none;stroke-dashoffset:0;stroke-opacity:0.496471;paint-order:stroke fill markers"
       transform="matrix(0,-0.26458333,0.26458333,0,-52.778218,61.243964)"
       d="m 15.998267,215.47501 224.003723,-1.6e-4 M 15.998234,229.47522 240.00196,229.47506 M 15.998201,243.47543 240.00193,243.47527 M 15.998168,257.47564 240.0019,257.47548 M 15.998135,271.47585 240.00186,271.47569 M 15.998102,285.47606 240.00183,285.4759 M 15.998069,299.47627 240.0018,299.47611 M 15.998036,313.47648 240.00176,313.47632 M 15.998003,327.47669 240.00173,327.47653 M 15.99797,341.4769 240.0017,341.47674 M 15.997937,355.47711 240.00166,355.47695 M 15.997904,369.47732 240.00163,369.47716 M 15.997871,383.47753 240.0016,383.47737 M 15.997838,397.47774 240.00157,397.47758 M 15.997805,411.47795 240.00153,411.47779 M 15.997772,425.47816 240.0015,425.478 M 15.997739,439.47837 240.00147,439.47821 M 15.998267,215.47501 15.997739,439.47837 M 29.9985,215.475 29.997972,439.47836 M 43.998733,215.47499 43.998205,439.47835 M 57.998966,215.47498 57.998438,439.47834 M 71.999199,215.47497 71.998671,439.47833 M 85.999432,215.47496 85.998904,439.47832 M 99.999665,215.47495 99.999137,439.47831 M 113.9999,215.47494 113.99937,439.4783 m 14.00076,-224.00337 -5.3e-4,224.00336 m 14.00076,-224.00337 -5.2e-4,224.00336 m 14.00076,-224.00337 -5.3e-4,224.00336 m 14.00076,-224.00337 -5.3e-4,224.00336 m 14.00076,-224.00337 -5.2e-4,224.00336 m 14.00076,-224.00337 -5.3e-4,224.00336 m 14.00076,-224.00337 -5.3e-4,224.00336 m 14.00076,-224.00337 -5.3e-4,224.00336 m 14.00077,-224.00337 -5.3e-4,224.00336"
       sodipodi:nodetypes="ccc"
       inkscape:label="grid8"
       inkscape:original-d="m 29.9985,215.475 -14.000233,1e-5 -3.3e-5,14.00021"
       inkscape:path-effect="#path-effect11"
       sodipodi:insensitive="true" /><path
       id="path5-4"
       style="display:none;fill:none;stroke:#000000;stroke-width:0.1;stroke-linecap:round;stroke-dasharray:none;stroke-dashoffset:0;stroke-opacity:0.498824;paint-order:stroke fill markers"
       d="M 4.2328766,57.011075 V -2.255587 m 4.2333137,59.26668 V -2.255569 m 4.2333137,59.26668 V -2.255551 m 4.233314,59.26668 V -2.255533 m 4.233313,59.26668 V -2.255515 m 4.233314,59.26668 V -2.255497 m 4.233314,59.26668 V -2.255479 m 4.233314,59.26668 V -2.255461 m 4.233313,59.26668 V -2.255443 M 42.3327,57.011237 V -2.255425 m 4.233314,59.26668 V -2.255407 m 4.233313,59.26668 V -2.255389 m 4.233314,59.26668 V -2.255371 m 4.233314,59.26668 V -2.255353 m 4.233313,59.26668 V -2.255335 M 4.2328766,57.011075 63.499268,57.011327 M 4.2328766,52.777742 63.499268,52.777994 M 4.2328766,48.544409 63.499268,48.544661 M 4.2328766,44.311076 63.499268,44.311328 M 4.2328766,40.077743 63.499268,40.077995 M 4.2328766,35.84441 63.499268,35.844662 M 4.2328766,31.611077 63.499268,31.611329 M 4.2328766,27.377744 63.499268,27.377996 M 4.2328766,23.144411 63.499268,23.144663 M 4.2328766,18.911078 63.499268,18.91133 M 4.2328766,14.677745 63.499268,14.677997 M 4.2328766,10.444412 63.499268,10.444664 M 4.2328766,6.211079 63.499268,6.211331 M 4.2328766,1.977746 63.499268,1.977998 M 4.2328766,-2.255587 63.499268,-2.255335"
       sodipodi:nodetypes="ccc"
       inkscape:label="grid7"
       inkscape:original-d="m 4.2328766,52.777742 v 4.233333 l 4.2333137,1.8e-5"
       inkscape:path-effect="#path-effect7"
       sodipodi:insensitive="true" /></g><g
     id="g7"
     inkscape:label="tutorial"
     style="display:inline"
     transform="matrix(0.74746459,0,0,0.74746459,-26.461175,-146.73527)"
     sodipodi:insensitive="true"><rect
       style="fill:#333333;stroke:#4c4c4c;stroke-width:1.33786;stroke-dasharray:none;stroke-dashoffset:0;stroke-opacity:1;paint-order:stroke fill markers"
       id="rect5"
       width="84.100029"
       height="61.927784"
       x="-72.727364"
       y="208.48517"
       ry="1.0176765" /><text
       xml:space="preserve"
       style="font-style:normal;font-variant:normal;font-weight:normal;font-stretch:normal;font-size:2.83776px;line-height:1.2;font-family:Arial;-inkscape-font-specification:Arial;white-space:pre;inline-size:86.068;display:inline;fill:#d2ceba;stroke:#000000;stroke-width:0.353974;paint-order:stroke fill markers"
       x="-19.539106"
       y="220.33925"
       id="text1"
       transform="matrix(0.87316131,0,0,0.87316131,-51.01199,20.922968)"><tspan
         x="-19.539106"
         y="220.33925"
         id="tspan3"><tspan
           style="fill:#ffffff;stroke:none"
           id="tspan2">There are two ways two work with this template:&#10;</tspan></tspan><tspan
         x="-19.539106"
         y="223.74457"
         id="tspan5"><tspan
           style="fill:#ffffff;stroke:none"
           id="tspan4">&#10;</tspan></tspan><tspan
         x="-19.539106"
         y="227.14988"
         id="tspan8"><tspan
           style="fill:#ffffff;stroke:none"
           id="tspan7">1. Reveal one of the provided grids, and with the snap tool </tspan></tspan><tspan
         x="-19.539106"
         y="230.5552"
         id="tspan10"><tspan
           style="fill:#ffffff;stroke:none"
           id="tspan9">activated, fill it with your pixel art using the rectangle tool. Make sure </tspan></tspan><tspan
         x="-19.539106"
         y="233.96052"
         id="tspan12"><tspan
           style="fill:#ffffff;stroke:none"
           id="tspan11">you're working in the &quot;texture&quot; clipped group. Repeat for the back&#10;</tspan></tspan><tspan
         x="-19.539106"
         y="237.36584"
         id="tspan14"><tspan
           style="fill:#ffffff;stroke:none"
           id="tspan13">&#10;</tspan></tspan><tspan
         x="-19.539106"
         y="240.77116"
         id="tspan16"><tspan
           style="fill:#ffffff;stroke:none"
           id="tspan15">2. Import a bitmap or some other art and place it in the &quot;texture&quot; </tspan></tspan><tspan
         x="-19.539106"
         y="244.17648"
         id="tspan18"><tspan
           style="fill:#ffffff;stroke:none"
           id="tspan17">group. Repeat for the back&#10;</tspan></tspan><tspan
         x="-19.539106"
         y="247.5818"
         id="tspan20"><tspan
           style="fill:#ffffff;stroke:none"
           id="tspan19">&#10;</tspan></tspan><tspan
         x="-19.539106"
         y="250.98712"
         id="tspan22"><tspan
           style="fill:#ffffff;stroke:none"
           id="tspan21">When you're ready to export, save this file as an .svg and run the </tspan></tspan><tspan
         x="-19.539106"
         y="254.39244"
         id="tspan24"><tspan
           style="fill:#ffffff;stroke:none"
           id="tspan23">script make-ico.sh passing it the .svg file as argument like this:&#10;</tspan></tspan><tspan
         x="-19.539106"
         y="257.79776"
         id="tspan26"><tspan
           style="fill:#ffffff;stroke:none"
           id="tspan25">&#10;</tspan></tspan><tspan
         x="-19.539106"
         y="261.20308"
         id="tspan29"><tspan
           style="font-family:'Courier New';-inkscape-font-specification:'Courier New'"
           id="tspan27">$ ./make-ico.sh myicon.svg</tspan><tspan
           style="fill:#ffffff;stroke:none"
           id="tspan28">&#10;</tspan></tspan><tspan
         x="-19.539106"
         y="264.63954"
         id="tspan31"><tspan
           style="fill:#ffffff;stroke:none"
           id="tspan30">&#10;</tspan></tspan><tspan
         x="-19.539106"
         y="268.04484"
         id="tspan33"><tspan
           style="fill:#ffffff;stroke:none"
           id="tspan32">You should see a .ico file in the same directory you've run the script. </tspan></tspan><tspan
         x="-19.539106"
         y="271.45015"
         id="tspan35"><tspan
           style="fill:#ffffff;stroke:none"
           id="tspan34">Enjoy :)&#10;</tspan></tspan><tspan
         x="-19.539106"
         y="274.85545"
         id="tspan37"><tspan
           style="fill:#ffffff;stroke:none"
           id="tspan36">&#10;</tspan></tspan><tspan
         x="-19.539106"
         y="278.26075"
         id="tspan39"><tspan
           style="fill:#ffffff;stroke:none"
           id="tspan38">(PS: you can also preview the icon in different resolutions with </tspan></tspan><tspan
         x="-19.539106"
         y="281.66606"
         id="tspan41"><tspan
           style="fill:#ffffff;stroke:none"
           id="tspan40">Inkscape's &quot;Icon Preview&quot; tab!) </tspan></tspan></text></g></svg>
